<?xml version="1.0" encoding="iso-8859-1"?>
<!-- Uploaded to: SVG Repo, www.svgrepo.com, Generator: SVG Repo Mixer Tools -->
<svg fill="#000000" height="800px" width="800px" version="1.1" id="Layer_1" xmlns="http://www.w3.org/2000/svg" xmlns:xlink="http://www.w3.org/1999/xlink" 
	 viewBox="0 0 503.607 503.607" xml:space="preserve">
<g>
	<g>
		<path d="M344.131,100.721V33.574c0-14.269-10.911-25.18-25.18-25.18h-16.787c-5.036,0-8.393,3.357-8.393,8.393v83.934h-16.787
			V25.18c0-14.269-10.911-25.18-25.18-25.18c-14.269,0-25.18,10.911-25.18,25.18v75.541h-16.787V16.787
			c0-5.036-3.357-8.393-8.393-8.393c-23.502,0-41.967,18.466-41.967,41.967v50.361c-14.269,0-25.18,10.911-25.18,25.18
			c0,10.911,6.715,20.144,16.787,23.502v77.22c0,37.771,19.305,62.951,50.361,66.308v42.807h100.721v-42.807
			c31.056-4.197,50.361-29.377,50.361-66.308v-77.22c10.072-3.357,16.787-12.59,16.787-23.502
			C369.311,111.633,358.4,100.721,344.131,100.721z M193.049,100.721h-16.787V50.361c0-10.911,6.715-20.144,16.787-23.502V100.721z
			 M260.197,100.721H243.41V25.18c0-5.036,3.357-8.393,8.393-8.393c5.036,0,8.393,3.357,8.393,8.393V100.721z M327.344,100.721
			h-16.787V25.18h8.393c5.036,0,8.393,3.357,8.393,8.393V100.721z"/>
	</g>
</g>
<g>
	<g>
		<path d="M386.098,486.82H276.984v-33.574h8.393c9.233,0,16.787-7.554,16.787-16.787v-16.787H268.59
			c-5.036,0-8.393-3.357-8.393-8.393s3.357-8.393,8.393-8.393h33.574v-16.787H268.59c-5.036,0-8.393-3.357-8.393-8.393
			c0-5.036,3.357-8.393,8.393-8.393h33.574v-16.787H201.443v16.787h33.574c5.036,0,8.393,3.357,8.393,8.393
			c0,5.036-3.357,8.393-8.393,8.393h-33.574v16.787h33.574c5.036,0,8.393,3.357,8.393,8.393s-3.357,8.393-8.393,8.393h-33.574
			v16.787c0,9.233,7.554,16.787,16.787,16.787h8.393v33.574H117.508c-5.036,0-8.393,3.357-8.393,8.393
			c0,5.036,3.357,8.393,8.393,8.393h117.508h33.574h117.508c5.036,0,8.393-3.357,8.393-8.393
			C394.492,491.016,391.134,486.82,386.098,486.82z M260.197,486.82H243.41v-33.574h16.787V486.82z"/>
	</g>
</g>
</svg>