<?xml version="1.0" encoding="utf-8"?>

<!-- Uploaded to: SVG Repo, www.svgrepo.com, Generator: SVG Repo Mixer Tools -->
<svg version="1.1" id="Icons" xmlns="http://www.w3.org/2000/svg" xmlns:xlink="http://www.w3.org/1999/xlink" 
	 viewBox="0 0 32 32" xml:space="preserve">
<style type="text/css">
	.st0{fill:none;stroke:#000000;stroke-width:2;stroke-linecap:round;stroke-linejoin:round;stroke-miterlimit:10;}
</style>
<path d="M23,28c-1.1,0-2.1-0.7-2.5-1.8c0-0.1,0-0.2-0.1-0.2h-8.9c0,0.1,0,0.2-0.1,0.2C11.1,27.3,10.1,28,9,28c-0.6,0-1,0.4-1,1
	s0.4,1,1,1h14c0.6,0,1-0.4,1-1S23.6,28,23,28z"/>
<path d="M27,3H5C3.3,3,2,4.3,2,6v15c0,1.7,1.3,3,3,3h6.9h8.1H27c1.7,0,3-1.3,3-3V6C30,4.3,28.7,3,27,3z M10.4,19l4.6-4.6l1.3,1.3
	c0.4,0.4,1,0.4,1.4,0l0.2-0.2l3,3.5H10.4z M23,18c0,0.1,0,0.2,0,0.2l-4.2-4.9C18.6,13.1,18.3,13,18,13c-0.3,0-0.5,0.1-0.7,0.3
	L17,13.6l-1.3-1.3c-0.4-0.4-1-0.4-1.4,0L9,17.6V9c0-0.6,0.4-1,1-1h12c0.6,0,1,0.4,1,1V18z"/>
</svg>